<svg width="27" height="27" viewBox="0 0 27 27" fill="none" xmlns="http://www.w3.org/2000/svg">
<path d="M25.9625 21.4125C25.9625 21.8625 25.8625 22.325 25.65 22.775C25.4375 23.225 25.1625 23.65 24.8 24.05C24.1875 24.725 23.5125 25.2125 22.75 25.525C22 25.8375 21.1875 26 20.3125 26C19.0375 26 17.675 25.7 16.2375 25.0875C14.8 24.475 13.3625 23.65 11.9375 22.6125C10.5 21.5625 9.1375 20.4 7.8375 19.1125C6.55 17.8125 5.3875 16.45 4.35 15.025C3.325 13.6 2.5 12.175 1.9 10.7625C1.3 9.3375 1 7.975 1 6.675C1 5.825 1.15 5.0125 1.45 4.2625C1.75 3.5 2.225 2.8 2.8875 2.175C3.6875 1.3875 4.5625 1 5.4875 1C5.8375 1 6.1875 1.075 6.5 1.225C6.825 1.375 7.1125 1.6 7.3375 1.925L10.2375 6.0125C10.4625 6.325 10.625 6.6125 10.7375 6.8875C10.85 7.15 10.9125 7.4125 10.9125 7.65C10.9125 7.95 10.825 8.25 10.65 8.5375C10.4875 8.825 10.25 9.125 9.95 9.425L9 10.4125C8.8625 10.55 8.8 10.7125 8.8 10.9125C8.8 11.0125 8.8125 11.1 8.8375 11.2C8.875 11.3 8.9125 11.375 8.9375 11.45C9.1625 11.8625 9.55 12.4 10.1 13.05C10.6625 13.7 11.2625 14.3625 11.9125 15.025C12.5875 15.6875 13.2375 16.3 13.9 16.8625C14.55 17.4125 15.0875 17.7875 15.5125 18.0125C15.575 18.0375 15.65 18.075 15.7375 18.1125C15.8375 18.15 15.9375 18.1625 16.05 18.1625C16.2625 18.1625 16.425 18.0875 16.5625 17.95L17.5125 17.0125C17.825 16.7 18.125 16.4625 18.4125 16.3125C18.7 16.1375 18.9875 16.05 19.3 16.05C19.5375 16.05 19.7875 16.1 20.0625 16.2125C20.3375 16.325 20.625 16.4875 20.9375 16.7L25.075 19.6375C25.4 19.8625 25.625 20.125 25.7625 20.4375C25.8875 20.75 25.9625 21.0625 25.9625 21.4125Z" stroke="white" stroke-width="1.5" stroke-miterlimit="10"/>
<path d="M21.625 9.75C21.625 9 21.0375 7.85 20.1625 6.9125C19.3625 6.05 18.3 5.375 17.25 5.375" stroke="#F5F5F5" stroke-width="1.5" stroke-linecap="round" stroke-linejoin="round"/>
<path d="M26 9.75C26 4.9125 22.0875 1 17.25 1" stroke="#F5F5F5" stroke-width="1.5" stroke-linecap="round" stroke-linejoin="round"/>
</svg>
