<svg width="31" height="25" viewBox="0 0 31 25" fill="none" xmlns="http://www.w3.org/2000/svg">
<path d="M1 5.3125L12.737 13.5284C13.6875 14.1938 14.1628 14.5264 14.6797 14.6552C15.1362 14.7691 15.6138 14.7691 16.0703 14.6552C16.5872 14.5264 17.0625 14.1938 18.013 13.5284L29.75 5.3125M7.9 24H22.85C25.2653 24 26.4728 24 27.3954 23.5299C28.2068 23.1165 28.8665 22.4568 29.2799 21.6454C29.75 20.7228 29.75 19.5153 29.75 17.1V7.9C29.75 5.48477 29.75 4.27716 29.2799 3.35467C28.8665 2.54321 28.2068 1.88349 27.3954 1.47003C26.4728 1 25.2653 1 22.85 1H7.9C5.48477 1 4.27716 1 3.35467 1.47003C2.54321 1.88349 1.88349 2.54321 1.47003 3.35467C1 4.27716 1 5.48477 1 7.9V17.1C1 19.5153 1 20.7228 1.47003 21.6454C1.88349 22.4568 2.54321 23.1165 3.35467 23.5299C4.27716 24 5.48477 24 7.9 24Z" stroke="white" stroke-width="1.8" stroke-linecap="round" stroke-linejoin="round"/>
</svg>
