<svg width="60" height="60" viewBox="0 0 60 60" fill="none" xmlns="http://www.w3.org/2000/svg">
<circle cx="30" cy="30" r="28.75" stroke="#212121" stroke-width="2.5"/>
<path fill-rule="evenodd" clip-rule="evenodd" d="M37.2315 26.8484L36.6519 31.0787H29.691V45.8849H25.4606V31.0787H19.1152V26.8484H25.4606V22.9713C25.4606 17.5925 28.7645 14.1152 33.8811 14.1152C36.0724 14.1152 37.4388 14.2315 38.2277 14.3372L38.1664 18.3434L34.9133 18.3497C34.8244 18.3413 32.7051 18.1763 31.1758 19.5807C30.1901 20.4839 29.691 21.7826 29.691 23.4367V26.8484H37.2315V26.8484ZM32.5951 21.1481C33.4284 20.3718 34.7271 20.4564 34.8223 20.4606L40.2498 20.4585L40.3662 12.6303L39.5497 12.4294C39.0252 12.3004 37.4197 12 33.8811 12C27.58 12 23.3455 16.4101 23.3455 22.9713V24.7333H17V33.1939H23.3455V48H31.8061V33.1939H38.4942L39.6555 24.7333H31.8061V23.4367C31.8061 22.4066 32.0726 21.6367 32.5951 21.1481Z" fill="black"/>
</svg>
