<svg width="60" height="60" viewBox="0 0 60 60" fill="none" xmlns="http://www.w3.org/2000/svg">
<circle cx="30" cy="30" r="28.75" stroke="#212121" stroke-width="2.5"/>
<path d="M30.1985 14.0003C27.6119 13.9815 24.9779 14.982 23.2728 16.9662C21.7604 18.5673 21.1893 20.8367 21.2655 22.9917C21.259 24.0985 21.2724 25.2051 21.2763 26.3117C20.2166 26.0486 19.1416 25.3119 18.0194 25.6767C17.0633 25.9606 16.6644 27.2092 17.2419 28.0099C17.8637 28.8231 18.8302 29.2871 19.6376 29.8931C20.0348 30.2175 20.5701 30.449 20.8657 30.8659C20.8655 31.8648 20.3413 32.7896 19.8447 33.6304C18.6345 35.5336 16.7437 36.9885 14.7193 37.9937C14.2025 38.2175 13.7268 38.8897 14.1846 39.3989C15.0196 40.182 16.2012 40.432 17.2538 40.8013C17.6964 40.9397 18.3517 41.091 18.3102 41.6843C18.3826 42.3163 18.787 42.9959 19.4977 42.9985C21.1999 43.1952 23.0196 43.1113 24.5453 44.0236C26.0408 44.8897 27.5803 45.8556 29.3572 45.9609C31.1275 46.1267 32.9513 45.7689 34.469 44.8246C35.5998 44.2011 36.702 43.4242 38.027 43.2979C39.1416 43.0372 40.341 43.2653 41.4184 42.8499C42.1088 42.5544 42.0156 41.7161 42.3057 41.1617C42.8532 40.784 43.5533 40.7405 44.163 40.491C44.9602 40.1732 45.9652 39.9291 46.3832 39.1044C46.6314 38.4475 45.8833 38.0886 45.4203 37.833C42.9598 36.563 40.7434 34.6069 39.7725 31.9539C39.6653 31.5353 39.2798 30.9087 39.7907 30.6015C40.8616 29.6985 42.2584 29.1798 43.1451 28.0685C43.816 27.2287 43.3486 25.7874 42.2497 25.6205C41.1842 25.4518 40.1903 26.0298 39.1898 26.2966C39.1025 24.4523 39.2984 22.5707 39.0221 20.7299C38.4969 17.7443 36.1001 15.2905 33.2246 14.4328C32.2471 14.1298 31.2212 13.9923 30.1985 14.0003Z" stroke="black" stroke-width="2.5" stroke-linejoin="round"/>
</svg>
