<svg width="60" height="60" viewBox="0 0 60 60" fill="none" xmlns="http://www.w3.org/2000/svg">
<circle cx="30" cy="30" r="28.75" stroke="#212121" stroke-width="2.5"/>
<path d="M37.8256 32.7783C37.4076 32.5803 35.4056 31.5903 35.0316 31.4363C34.6576 31.2823 34.3936 31.2383 34.1077 31.6563C33.8217 32.0743 33.0517 32.9763 32.8097 33.2623C32.5677 33.5483 32.3477 33.5703 31.9297 33.2623C30.7291 32.7805 29.6203 32.0958 28.6517 31.2383C27.775 30.4128 27.0327 29.4552 26.4518 28.4004C26.2098 28.0044 26.4518 27.7844 26.6278 27.5644C26.8038 27.3444 27.0238 27.1024 27.2438 26.8604C27.4046 26.6511 27.5378 26.4219 27.6398 26.1784C27.6943 26.0652 27.7227 25.9411 27.7227 25.8154C27.7227 25.6897 27.6943 25.5656 27.6398 25.4524C27.6398 25.2544 26.7158 23.2524 26.3638 22.4385C26.0118 21.6245 25.7038 21.7345 25.4618 21.7345H24.5818C24.1626 21.7508 23.767 21.9328 23.4818 22.2405C23.0215 22.6797 22.6569 23.2094 22.4108 23.7961C22.1647 24.3829 22.0425 25.0142 22.0519 25.6504C22.1644 27.2123 22.7387 28.7056 23.7018 29.9403C25.4692 32.5658 27.8872 34.6882 30.7197 36.1002C31.6877 36.5182 32.4357 36.7602 33.0297 36.9582C33.8638 37.2103 34.7454 37.2631 35.6036 37.1122C36.1736 36.9966 36.7138 36.7651 37.1906 36.432C37.6674 36.099 38.0708 35.6716 38.3756 35.1762C38.6292 34.5645 38.7129 33.8956 38.6176 33.2403C38.5076 33.0863 38.2436 32.9763 37.8256 32.7783Z" fill="black"/>
<path d="M41.9395 17.7965C40.4181 16.2606 38.6045 15.045 36.6057 14.2214C34.607 13.3977 32.4635 12.9826 30.3017 13.0006C27.438 13.0155 24.6284 13.7816 22.1534 15.2223C19.6784 16.6629 17.6247 18.7277 16.1974 21.2104C14.7701 23.6931 14.0192 26.5069 14.0197 29.3706C14.0201 32.2344 14.7719 35.0479 16.2 37.5301L14 46L22.6679 43.8C25.0641 45.104 27.7497 45.7848 30.4777 45.78H30.3017C33.5531 45.8012 36.7371 44.8535 39.4477 43.0579C42.1583 41.2622 44.2727 38.6999 45.5213 35.6978C46.7698 32.6956 47.0959 29.3896 46.458 26.2014C45.8201 23.0131 44.2471 20.0871 41.9395 17.7965ZM30.3017 42.9641C27.861 42.966 25.4656 42.3044 23.3718 41.0501L22.8878 40.7641L17.7399 42.1061L19.1039 37.0902L18.7959 36.5842C17.0389 33.7546 16.3817 30.3786 16.9489 27.0966C17.5162 23.8147 19.2684 20.8551 21.8732 18.7794C24.4779 16.7037 27.754 15.6564 31.0798 15.8361C34.4056 16.0159 37.5497 17.4102 39.9156 19.7544C41.1839 21.0126 42.1892 22.5106 42.8728 24.1611C43.5565 25.8117 43.9048 27.5818 43.8975 29.3683C43.8917 32.9723 42.4574 36.4271 39.909 38.9755C37.3605 41.524 33.9058 42.9582 30.3017 42.9641Z" fill="black"/>
</svg>
