<svg width="60" height="60" viewBox="0 0 60 60" fill="none" xmlns="http://www.w3.org/2000/svg">
<circle cx="30" cy="30" r="28.75" stroke="#212121" stroke-width="2.5"/>
<path d="M44.722 38.579C44.137 39.894 42.628 41.085 41.211 41.348C41.066 41.375 37.603 42 30.01 42H29.99C22.398 42 18.932 41.375 18.788 41.349C17.371 41.085 15.861 39.894 15.275 38.578C15.223 38.461 14.001 35.647 14.001 30C14.001 24.353 15.223 21.538 15.275 21.421C15.861 20.105 17.371 18.915 18.788 18.652C18.932 18.625 22.398 18 29.99 18C37.603 18 41.066 18.625 41.21 18.651C42.628 18.915 44.137 20.105 44.723 21.42C44.775 21.538 46 24.353 46 30C46 35.647 44.775 38.461 44.722 38.579ZM42.893 22.23C42.581 21.529 41.603 20.759 40.845 20.618C40.813 20.612 37.386 20 30.01 20C22.615 20 19.185 20.612 19.152 20.618C18.394 20.759 17.417 21.529 17.104 22.234C17.094 22.255 16.002 24.829 16.002 30C16.002 35.17 17.094 37.744 17.106 37.77C17.417 38.471 18.394 39.241 19.153 39.382C19.185 39.388 22.615 40 29.99 40H30.01C37.386 40 40.813 39.388 40.846 39.382C41.604 39.241 42.581 38.471 42.894 37.766C42.904 37.744 43.998 35.17 43.998 30C43.998 24.83 42.904 22.255 42.893 22.23ZM27.541 35.846C27.379 35.949 27.193 36 27.008 36C26.842 36 26.676 35.959 26.525 35.875C26.206 35.699 26.008 35.364 26.008 35V25C26.008 24.637 26.204 24.303 26.521 24.127C26.838 23.95 27.227 23.958 27.534 24.149L35.553 29.105C35.846 29.286 36.026 29.606 36.027 29.951C36.028 30.296 35.852 30.618 35.56 30.801L27.541 35.846ZM28.009 26.794V33.189L33.137 29.963L28.009 26.794Z" fill="black"/>
</svg>
